<?xml version="1.0" encoding="UTF-8"?>
<svg width="700pt" height="700pt" version="1.1" viewBox="0 0 700 700" xmlns="http://www.w3.org/2000/svg" xmlns:xlink="http://www.w3.org/1999/xlink">
 <defs>
  <symbol id="u" overflow="visible">
   <path d="m7.5625-0.45312c-0.38672 0.19922-0.79297 0.35156-1.2188 0.45312-0.41797 0.10156-0.85547 0.15625-1.3125 0.15625-1.375 0-2.4648-0.37891-3.2656-1.1406-0.80469-0.76953-1.2031-1.8125-1.2031-3.125s0.39844-2.3516 1.2031-3.125c0.80078-0.76953 1.8906-1.1562 3.2656-1.1562 0.45703 0 0.89453 0.054687 1.3125 0.15625 0.42578 0.10547 0.83203 0.26172 1.2188 0.46875v1.7031c-0.38672-0.26953-0.77344-0.46875-1.1562-0.59375-0.38672-0.125-0.78906-0.1875-1.2031-0.1875-0.76172 0-1.3594 0.24609-1.7969 0.73438-0.42969 0.48047-0.64062 1.1484-0.64062 2 0 0.85547 0.21094 1.5273 0.64062 2.0156 0.4375 0.48047 1.0352 0.71875 1.7969 0.71875 0.41406 0 0.81641-0.0625 1.2031-0.1875 0.38281-0.125 0.76953-0.32031 1.1562-0.59375z"/>
  </symbol>
  <symbol id="c" overflow="visible">
   <path d="m5.5312-4.5c-0.16797-0.070312-0.33984-0.12891-0.51562-0.17188-0.16797-0.039063-0.33984-0.0625-0.51562-0.0625-0.5 0-0.89062 0.16797-1.1719 0.5-0.27344 0.32422-0.40625 0.78906-0.40625 1.3906v2.8438h-1.9688v-6.1719h1.9688v1.0156c0.25-0.40625 0.53906-0.70312 0.875-0.89062 0.33203-0.1875 0.72656-0.28125 1.1875-0.28125 0.0625 0 0.12891 0.007813 0.20312 0.015625 0.082031 0 0.19531 0.011719 0.34375 0.03125z"/>
  </symbol>
  <symbol id="b" overflow="visible">
   <path d="m7.1094-3.1094v0.5625h-4.6094c0.050781 0.46875 0.21875 0.82031 0.5 1.0469 0.28906 0.23047 0.69141 0.34375 1.2031 0.34375 0.41406 0 0.84375-0.054688 1.2812-0.17188 0.4375-0.125 0.88281-0.3125 1.3438-0.5625v1.5156c-0.46875 0.17969-0.9375 0.30859-1.4062 0.39062-0.46875 0.09375-0.9375 0.14062-1.4062 0.14062-1.1172 0-1.9844-0.28125-2.6094-0.84375-0.61719-0.57031-0.92188-1.3672-0.92188-2.3906 0-1.0078 0.30078-1.8008 0.90625-2.375 0.61328-0.58203 1.4531-0.875 2.5156-0.875 0.96875 0 1.7422 0.29297 2.3281 0.875 0.58203 0.58594 0.875 1.3672 0.875 2.3438zm-2.0312-0.65625c0-0.375-0.10938-0.67578-0.32812-0.90625-0.21875-0.22656-0.5-0.34375-0.84375-0.34375-0.38672 0-0.69922 0.10938-0.9375 0.32812-0.24219 0.21094-0.39062 0.51562-0.45312 0.92188z"/>
  </symbol>
  <symbol id="j" overflow="visible">
   <path d="m3.7188-2.7812c-0.41797 0-0.73047 0.074219-0.9375 0.21875-0.19922 0.13672-0.29688 0.33984-0.29688 0.60938 0 0.25 0.082031 0.44922 0.25 0.59375 0.16406 0.13672 0.39453 0.20312 0.6875 0.20312 0.375 0 0.6875-0.12891 0.9375-0.39062 0.25781-0.26953 0.39062-0.60156 0.39062-1v-0.23438zm3.0156-0.75v3.5312h-1.9844v-0.92188c-0.27344 0.375-0.57422 0.65234-0.90625 0.82812-0.32422 0.16406-0.72656 0.25-1.2031 0.25-0.63672 0-1.1562-0.17969-1.5625-0.54688-0.39844-0.375-0.59375-0.86328-0.59375-1.4688 0-0.71875 0.25-1.2422 0.75-1.5781 0.5-0.34375 1.2812-0.51562 2.3438-0.51562h1.1719v-0.15625c0-0.3125-0.125-0.53906-0.375-0.6875-0.25-0.14453-0.63672-0.21875-1.1562-0.21875-0.41797 0-0.80859 0.042969-1.1719 0.125-0.36719 0.085937-0.70312 0.21484-1.0156 0.39062v-1.5156c0.41406-0.10156 0.83594-0.17969 1.2656-0.23438 0.42578-0.050781 0.85156-0.078125 1.2812-0.078125 1.1133 0 1.9141 0.21875 2.4062 0.65625 0.5 0.4375 0.75 1.1523 0.75 2.1406z"/>
  </symbol>
  <symbol id="d" overflow="visible">
   <path d="m3.1094-7.9375v1.7656h2.0312v1.4062h-2.0312v2.625c0 0.28125 0.054687 0.47656 0.17188 0.57812 0.11328 0.10547 0.33594 0.15625 0.67188 0.15625h1.0156v1.4062h-1.6875c-0.78125 0-1.3398-0.16016-1.6719-0.48438-0.32422-0.32031-0.48438-0.875-0.48438-1.6562v-2.625h-0.96875v-1.4062h0.96875v-1.7656z"/>
  </symbol>
  <symbol id="i" overflow="visible">
   <path d="m5.1562-5.2656v-3.3125h1.9844v8.5781h-1.9844v-0.89062c-0.27344 0.36719-0.57422 0.63281-0.90625 0.79688-0.32422 0.16406-0.70312 0.25-1.1406 0.25-0.76172 0-1.3867-0.30078-1.875-0.90625-0.49219-0.60156-0.73438-1.3789-0.73438-2.3281 0-0.95703 0.24219-1.7383 0.73438-2.3438 0.48828-0.60156 1.1133-0.90625 1.875-0.90625 0.42578 0 0.80469 0.089844 1.1406 0.26562 0.33203 0.16797 0.63281 0.43359 0.90625 0.79688zm-1.3125 3.9844c0.42578 0 0.75-0.14844 0.96875-0.45312 0.22656-0.3125 0.34375-0.75781 0.34375-1.3438 0-0.59375-0.11719-1.0391-0.34375-1.3438-0.21875-0.3125-0.54297-0.46875-0.96875-0.46875-0.41797 0-0.74219 0.15625-0.96875 0.46875-0.21875 0.30469-0.32812 0.75-0.32812 1.3438 0 0.58594 0.10938 1.0312 0.32812 1.3438 0.22656 0.30469 0.55078 0.45312 0.96875 0.45312z"/>
  </symbol>
  <symbol id="h" overflow="visible">
   <path d="m4.2344-1.2812c0.42578 0 0.75-0.14844 0.96875-0.45312 0.21875-0.3125 0.32812-0.75781 0.32812-1.3438 0-0.59375-0.10938-1.0391-0.32812-1.3438-0.21875-0.3125-0.54297-0.46875-0.96875-0.46875-0.41797 0-0.74219 0.15625-0.96875 0.46875-0.23047 0.3125-0.34375 0.76172-0.34375 1.3438 0 0.58594 0.11328 1.0312 0.34375 1.3438 0.22656 0.30469 0.55078 0.45312 0.96875 0.45312zm-1.3125-3.9844c0.26953-0.36328 0.57031-0.62891 0.90625-0.79688 0.33203-0.17578 0.71094-0.26562 1.1406-0.26562 0.75781 0 1.3828 0.30469 1.875 0.90625 0.48828 0.60547 0.73438 1.3867 0.73438 2.3438 0 0.94922-0.24609 1.7266-0.73438 2.3281-0.49219 0.60547-1.1172 0.90625-1.875 0.90625-0.42969 0-0.80859-0.085938-1.1406-0.25-0.33594-0.17578-0.63672-0.44141-0.90625-0.79688v0.89062h-1.9688v-8.5781h1.9688z"/>
  </symbol>
  <symbol id="g" overflow="visible">
   <path d="m0.14062-6.1719h1.9688l1.6562 4.1875 1.4219-4.1875h1.9688l-2.5938 6.75c-0.26172 0.6875-0.57031 1.1641-0.92188 1.4375-0.34375 0.28125-0.80469 0.42188-1.375 0.42188h-1.1406v-1.2969h0.625c0.33203 0 0.57031-0.054687 0.71875-0.15625 0.15625-0.10547 0.27344-0.29688 0.35938-0.57812l0.0625-0.17188z"/>
  </symbol>
  <symbol id="e" overflow="visible">
   <path d="m5.9375-5.9844v1.6094c-0.27344-0.1875-0.54297-0.32031-0.8125-0.40625-0.26172-0.09375-0.53906-0.14062-0.82812-0.14062-0.55469 0-0.98438 0.16406-1.2969 0.48438-0.30469 0.32422-0.45312 0.77734-0.45312 1.3594 0 0.57422 0.14844 1.0234 0.45312 1.3438 0.3125 0.32422 0.74219 0.48438 1.2969 0.48438 0.30078 0 0.59375-0.046875 0.875-0.14062s0.53516-0.22656 0.76562-0.40625v1.6094c-0.30469 0.11719-0.61719 0.19531-0.9375 0.25-0.32422 0.0625-0.64062 0.09375-0.95312 0.09375-1.1172 0-1.9922-0.28516-2.625-0.85938-0.625-0.57031-0.9375-1.3633-0.9375-2.375 0-1.0195 0.3125-1.8164 0.9375-2.3906 0.63281-0.57031 1.5078-0.85938 2.625-0.85938 0.32031 0 0.64062 0.03125 0.95312 0.09375 0.3125 0.054687 0.625 0.13672 0.9375 0.25z"/>
  </symbol>
  <symbol id="a" overflow="visible">
   <path d="m3.8906-4.9219c-0.4375 0-0.77344 0.16406-1 0.48438-0.23047 0.3125-0.34375 0.76562-0.34375 1.3594 0 0.58594 0.11328 1.0391 0.34375 1.3594 0.22656 0.3125 0.5625 0.46875 1 0.46875 0.42578 0 0.75391-0.15625 0.98438-0.46875 0.22656-0.32031 0.34375-0.77344 0.34375-1.3594 0-0.59375-0.11719-1.0469-0.34375-1.3594-0.23047-0.32031-0.55859-0.48438-0.98438-0.48438zm0-1.4062c1.0625 0 1.8906 0.28906 2.4844 0.85938 0.60156 0.57422 0.90625 1.3711 0.90625 2.3906 0 1.0117-0.30469 1.8047-0.90625 2.375-0.59375 0.57422-1.4219 0.85938-2.4844 0.85938s-1.8984-0.28516-2.5-0.85938c-0.60547-0.57031-0.90625-1.3633-0.90625-2.375 0-1.0195 0.30078-1.8164 0.90625-2.3906 0.60156-0.57031 1.4375-0.85938 2.5-0.85938z"/>
  </symbol>
  <symbol id="t" overflow="visible">
   <path d="m0.95312-8.5781h1.9688v8.5781h-1.9688z"/>
  </symbol>
  <symbol id="s" overflow="visible">
   <path d="m0.95312-6.1719h1.9688v6.1719h-1.9688zm0-2.4062h1.9688v1.6094h-1.9688z"/>
  </symbol>
  <symbol id="f" overflow="visible">
   <path d="m2.9219-0.89062v3.2344h-1.9688v-8.5156h1.9688v0.90625c0.26953-0.36328 0.57031-0.62891 0.90625-0.79688 0.33203-0.17578 0.71094-0.26562 1.1406-0.26562 0.75781 0 1.3828 0.30469 1.875 0.90625 0.48828 0.60547 0.73438 1.3867 0.73438 2.3438 0 0.94922-0.24609 1.7266-0.73438 2.3281-0.49219 0.60547-1.1172 0.90625-1.875 0.90625-0.42969 0-0.80859-0.085938-1.1406-0.25-0.33594-0.17578-0.63672-0.44141-0.90625-0.79688zm1.3125-4c-0.41797 0-0.74219 0.15625-0.96875 0.46875-0.23047 0.3125-0.34375 0.76172-0.34375 1.3438 0 0.58594 0.11328 1.0312 0.34375 1.3438 0.22656 0.30469 0.55078 0.45312 0.96875 0.45312 0.42578 0 0.75-0.14844 0.96875-0.45312 0.21875-0.3125 0.32812-0.75781 0.32812-1.3438 0-0.59375-0.10938-1.0391-0.32812-1.3438-0.21875-0.3125-0.54297-0.46875-0.96875-0.46875z"/>
  </symbol>
  <symbol id="r" overflow="visible">
   <path d="m5.0156-8.5781v1.2969h-1.0938c-0.28125 0-0.48047 0.054688-0.59375 0.15625-0.10547 0.09375-0.15625 0.26562-0.15625 0.51562v0.4375h1.6875v1.4062h-1.6875v4.7656h-1.9688v-4.7656h-0.98438v-1.4062h0.98438v-0.4375c0-0.67578 0.1875-1.1719 0.5625-1.4844 0.375-0.32031 0.95312-0.48438 1.7344-0.48438z"/>
  </symbol>
  <symbol id="q" overflow="visible">
   <path d="m6.6719-5.1562c0.25-0.375 0.54688-0.66016 0.89062-0.85938 0.34375-0.20703 0.72266-0.3125 1.1406-0.3125 0.70703 0 1.2422 0.21875 1.6094 0.65625 0.375 0.4375 0.5625 1.0742 0.5625 1.9062v3.7656h-1.9844v-3.2188-0.15625c0.007813-0.050781 0.015625-0.125 0.015625-0.21875 0-0.4375-0.070312-0.75391-0.20312-0.95312-0.125-0.19531-0.32812-0.29688-0.60938-0.29688-0.375 0-0.66797 0.15625-0.875 0.46875-0.21094 0.3125-0.3125 0.76172-0.3125 1.3438v3.0312h-1.9844v-3.2188c0-0.6875-0.0625-1.1289-0.1875-1.3281-0.11719-0.19531-0.32422-0.29688-0.625-0.29688-0.375 0-0.66797 0.15625-0.875 0.46875-0.21094 0.3125-0.3125 0.75781-0.3125 1.3281v3.0469h-1.9844v-6.1719h1.9844v0.90625c0.23828-0.35156 0.51562-0.61719 0.82812-0.79688 0.32031-0.17578 0.67188-0.26562 1.0469-0.26562 0.42578 0 0.80078 0.10547 1.125 0.3125 0.33203 0.21094 0.58203 0.49609 0.75 0.85938z"/>
  </symbol>
  <symbol id="p" overflow="visible">
   <path d="m7.1562-3.7656v3.7656h-1.9844v-2.875c0-0.53125-0.011719-0.89453-0.03125-1.0938-0.023437-0.20703-0.0625-0.35938-0.125-0.45312-0.085937-0.13281-0.19531-0.23828-0.32812-0.3125-0.125-0.070313-0.27344-0.10938-0.4375-0.10938-0.41797 0-0.74609 0.16406-0.98438 0.48438-0.23047 0.3125-0.34375 0.75-0.34375 1.3125v3.0469h-1.9688v-8.5781h1.9688v3.3125c0.30078-0.36328 0.61719-0.62891 0.95312-0.79688 0.33203-0.17578 0.70312-0.26562 1.1094-0.26562 0.70703 0 1.2422 0.21875 1.6094 0.65625 0.375 0.4375 0.5625 1.0742 0.5625 1.9062z"/>
  </symbol>
  <symbol id="o" overflow="visible">
   <path d="m1.0312-8.2344h2.375l3 5.6406v-5.6406h2.0156v8.2344h-2.375l-3-5.6562v5.6562h-2.0156z"/>
  </symbol>
  <symbol id="n" overflow="visible">
   <path d="m0.875-2.4062v-3.7656h2v0.60938c0 0.33594-0.007812 0.75781-0.015625 1.2656v1.0156c0 0.49219 0.007813 0.84375 0.03125 1.0625 0.03125 0.21875 0.078125 0.38281 0.14062 0.48438 0.082031 0.125 0.1875 0.22656 0.3125 0.29688 0.13281 0.074219 0.28516 0.10938 0.45312 0.10938 0.40625 0 0.72656-0.15625 0.96875-0.46875 0.23828-0.32031 0.35938-0.76562 0.35938-1.3281v-3.0469h1.9688v6.1719h-1.9688v-0.89062c-0.30469 0.35547-0.62109 0.62109-0.95312 0.79688-0.33594 0.16406-0.69922 0.25-1.0938 0.25-0.71875 0-1.2656-0.21875-1.6406-0.65625s-0.5625-1.0703-0.5625-1.9062z"/>
  </symbol>
  <symbol id="m" overflow="visible">
   <path d="m7.1562-3.7656v3.7656h-1.9844v-2.875c0-0.53125-0.011719-0.89453-0.03125-1.0938-0.023437-0.20703-0.0625-0.35938-0.125-0.45312-0.085937-0.13281-0.19531-0.23828-0.32812-0.3125-0.125-0.070313-0.27344-0.10938-0.4375-0.10938-0.41797 0-0.74609 0.16406-0.98438 0.48438-0.23047 0.3125-0.34375 0.75-0.34375 1.3125v3.0469h-1.9688v-6.1719h1.9688v0.90625c0.30078-0.36328 0.61719-0.62891 0.95312-0.79688 0.33203-0.17578 0.70312-0.26562 1.1094-0.26562 0.70703 0 1.2422 0.21875 1.6094 0.65625 0.375 0.4375 0.5625 1.0742 0.5625 1.9062z"/>
  </symbol>
  <symbol id="l" overflow="visible">
   <path d="m1.0312-8.2344h3.5312c1.0508 0 1.8516 0.23438 2.4062 0.70312 0.5625 0.46094 0.84375 1.1211 0.84375 1.9844 0 0.86719-0.28125 1.5312-0.84375 2-0.55469 0.46094-1.3555 0.6875-2.4062 0.6875h-1.4062v2.8594h-2.125zm2.125 1.5312v2.3125h1.1719c0.41406 0 0.73438-0.097656 0.95312-0.29688 0.22656-0.20703 0.34375-0.49219 0.34375-0.85938 0-0.36328-0.11719-0.64453-0.34375-0.84375-0.21875-0.20703-0.53906-0.3125-0.95312-0.3125z"/>
  </symbol>
  <symbol id="k" overflow="visible">
   <path d="m0.95312-6.1719h1.9688v6.0625c0 0.82031-0.19922 1.4531-0.59375 1.8906-0.39844 0.4375-0.97656 0.65625-1.7344 0.65625h-0.96875v-1.2969h0.34375c0.375 0 0.62891-0.085937 0.76562-0.25 0.14453-0.16797 0.21875-0.5 0.21875-1zm0-2.4062h1.9688v1.6094h-1.9688z"/>
  </symbol>
 </defs>
 <g>
  <path d="m424.29 127.36v-51.711c0-4.5156 3.6133-8.1289 8.1289-8.1289s8.1289 3.6133 8.1289 8.1289v51.711c0 4.7422 3.8398 8.8047 8.8047 8.8047 4.7422 0 8.8047-3.8398 8.8047-8.8047l0.003906-51.711c0-14.227-11.516-25.742-25.742-25.742-2.9336 0-5.6445 0.45312-8.1289 1.3555v-7c0-14.227-11.516-25.742-25.742-25.742-4.2891 0-8.3555 1.1289-11.969 2.9336-4.5156-7.4531-12.645-12.418-21.902-12.418-12.418 0-22.805 8.8047-25.289 20.773-2.7109-0.90234-5.6445-1.582-8.8047-1.582-14.227 0-25.742 11.516-25.742 25.742v0.45312l5.6445 96.195-9.4844-10.16c-3.3867-5.418-8.8047-9.2578-15.129-11.066-6.5469-1.8047-13.547-0.90234-19.418 2.4844-5.8711 3.3867-10.16 9.0312-11.969 15.582-1.8047 6.5469-0.90234 13.547 2.4844 19.418 0.22656 0.22656 0.45312 0.67578 0.67578 0.90234l57.129 76.324 7.2266 49.676c0.67578 4.2891 4.2891 7.4531 8.582 7.4531h1.3555c4.7422-0.67578 8.1289-5.1953 7.4531-9.9336l-6.7734-47.418c0.67578-2.4844 0.22656-5.1953-1.3555-7.4531-0.45312-1.1289-1.1289-2.0312-2.0312-2.7109l-56.906-75.871c-0.90234-1.8047-1.1289-3.8398-0.67578-5.8711 0.67578-2.0312 2.0312-3.8398 3.8398-4.9688 1.8047-1.1289 4.0664-1.3555 6.3242-0.90234 2.0312 0.67578 3.8398 2.0312 4.9688 3.8398 0.22656 0.67578 0.67578 1.1289 1.1289 1.582l26.645 28.453s0.22656 0 0.22656 0.22656l0.67578 0.67578c0.22656 0.22656 0.45312 0.22656 0.67578 0.45312 0.22656 0.22656 0.45313 0.22656 0.67578 0.45312 0.22656 0 0.45312 0.22656 0.67578 0.45312 0.22656 0 0.67578 0.22656 0.90234 0.22656 0.22656 0 0.45312 0.22656 0.67578 0.22656h0.90234 0.90234 0.22656 0.45312 0.45312c0.22656 0 0.67578 0 0.90234-0.22656 0.22656 0 0.45312-0.22656 0.67578-0.22656 0.22656 0 0.45312-0.22656 0.90234-0.22656 0.22656 0 0.45312-0.22656 0.67578-0.45312 0.22656-0.22656 0.45312-0.22656 0.67578-0.45313 0.22656-0.22656 0.45312-0.45312 0.67578-0.45312l1.1289-1.1289c0.22656-0.22656 0.45312-0.45312 0.45312-0.67578 0.22656-0.22656 0.22656-0.45312 0.45312-0.67578 0.22656-0.22656 0.22656-0.45312 0.45312-0.67578 0-0.22656 0.22656-0.45313 0.22656-0.67578 0-0.22656 0.22656-0.45312 0.22656-0.90234v-0.90234-0.90234-0.45312l-7-120.13c0-4.5156 3.8398-8.1289 8.1289-8.1289 4.5156 0 8.1289 3.6133 8.1289 8.1289l0.003907 39.055v42.676c0 4.7422 3.8398 8.8047 8.8047 8.8047 4.9688 0 8.8047-3.8398 8.8047-8.8047l0.003907-42.676v-57.809c0-4.5156 3.6133-8.1289 8.1289-8.1289s8.1289 3.6133 8.1289 8.1289v100.48c0 4.7422 3.8398 8.8047 8.8047 8.8047 4.7422 0 8.8047-3.8398 8.8047-8.8047v-7.9023l0.003906-83.098c0-4.5156 3.6133-8.1289 8.1289-8.1289s8.1289 3.6133 8.1289 8.1289v83.098c0 4.7422 3.8398 8.8047 8.8047 8.8047 4.9688 0 9.0312-4.0625 9.0312-8.8047z"/>
  <path d="m449.58 163.03c-4.7422 0-8.8047 3.8398-8.8047 8.8047v16.484c0 19.871-5.418 39.289-15.582 56.227-0.90234 1.3555-1.3555 2.9336-1.3555 4.5156v32.969c0 4.7422 3.8398 8.8047 8.8047 8.8047 4.7422 0 8.8047-3.8398 8.8047-8.8047v-30.711c11.066-19.195 16.934-41.098 16.934-63.227v-16.484c-0.22266-4.7383-4.0586-8.5781-8.8008-8.5781z"/>
  <path d="m618.03 396.97c-1.8047-6.5469-6.0977-12.195-11.969-15.582s-12.871-4.2891-19.418-2.4844c-6.3242 1.582-11.516 5.6445-15.129 11.066l-9.4844 10.16 5.6445-96.195v-0.45312c0-14.227-11.516-25.742-25.742-25.742-3.1602 0-6.0977 0.67578-8.8047 1.582-2.2578-11.742-12.645-20.773-25.066-20.773-9.2578 0-17.613 4.9688-22.129 12.418-3.6133-1.8047-7.6758-2.9336-11.969-2.9336-14.227 0-25.742 11.516-25.742 25.742v7c-2.4844-0.90234-5.418-1.3555-8.1289-1.3555-14.227 0-25.742 11.516-25.742 25.742v61.645c0 4.7422 3.8398 8.8047 8.8047 8.8047 4.7422 0 8.8047-3.8398 8.8047-8.8047v-61.645c0-4.5156 3.6133-8.1289 8.1289-8.1289s8.1289 3.6133 8.1289 8.1289v51.711c0 4.7422 3.8398 8.8047 8.8047 8.8047 4.7422 0 8.8047-3.8398 8.8047-8.8047v-83.098c0-4.5156 3.6133-8.1289 8.1289-8.1289s8.1289 3.6133 8.1289 8.1289v91c0 4.7422 3.8398 8.8047 8.8047 8.8047 4.7422 0 8.8047-3.8398 8.8047-8.8047v-100.48c0-4.5156 3.6133-8.1289 8.1289-8.1289s8.1289 3.6133 8.1289 8.1289v100.48c0 4.7422 3.8398 8.8047 8.8047 8.8047 4.7422 0 8.8047-3.8398 8.8047-8.8047v-81.289c0-4.5156 3.6133-8.1289 8.1289-8.1289s8.1289 3.6133 8.1289 8.1289l-7 120.13v0.45312 0.90234 0.90234c0 0.22656 0.22656 0.45312 0.22656 0.90234 0 0.22656 0.22656 0.45312 0.22656 0.67578 0 0.22656 0.22656 0.45312 0.45312 0.67578 0.22656 0.22656 0.22656 0.45312 0.45313 0.67578 0.22656 0.22656 0.22656 0.45312 0.45312 0.67578l1.8047 1.8047c0.22656 0.22656 0.45312 0.22656 0.67578 0.45312 0.22656 0.22656 0.45312 0.22656 0.67578 0.45312 0.22656 0 0.45313 0.22656 0.90234 0.22656 0.22656 0 0.45312 0.22656 0.67578 0.22656 0.22656 0 0.67578 0 0.90234 0.22656h0.45312 0.45312 0.22656 0.90234 0.90234c0.22656 0 0.45312-0.22656 0.67578-0.22656 0.22656 0 0.67578-0.22656 0.90234-0.22656 0.22656 0 0.45312-0.22656 0.67578-0.45312 0.22656-0.22656 0.45312-0.22656 0.67578-0.45313 0.22656-0.22656 0.45312-0.22656 0.67578-0.45312 0.22656-0.22656 0.45312-0.45313 0.67578-0.67578 0 0 0.22656 0 0.22656-0.22656l26.418-28.453c0.45313-0.45312 0.90234-0.90234 1.1289-1.582 1.1289-1.8047 2.9336-3.1602 4.9688-3.8398 2.0312-0.67578 4.2891-0.22656 6.3242 0.90234 1.8047 1.1289 3.1602 2.9336 3.8398 4.9688 0.45312 2.0312 0.22656 4.0664-0.67578 5.8711l-55.75 75.207c-0.90234 0.67578-1.582 1.8047-2.0312 2.7109-1.582 2.2578-2.0312 4.9688-1.3555 7.4531l-7 47.418c-0.67578 4.7422 2.7109 9.2578 7.4531 9.9336h1.3555c4.2891 0 7.9023-3.1602 8.582-7.4531l7.2266-49.676 56.902-76.324c0.22656-0.22656 0.45313-0.45312 0.67578-0.90234 3.1562-5.8711 4.0625-12.645 2.2539-19.418z"/>
  <path d="m432.2 437.61c0-4.7422-3.8398-8.8047-8.8047-8.8047-4.7422 0-8.8047 3.8398-8.8047 8.8047 0 22.355 5.8711 44.031 16.934 63.227v30.711c0 4.7422 3.8398 8.8047 8.8047 8.8047 4.7422 0 8.8047-3.8398 8.8047-8.8047v-32.969c0-1.582-0.45312-3.1602-1.3555-4.5156-10.16-17.164-15.578-36.582-15.578-56.453z"/>
  <path d="m280 263.97c-3.6133 0-7 0.67578-10.16 2.0312v-9.2578c0-15.355-12.418-27.773-27.773-27.773-4.9688 0-9.7109 1.3555-13.773 3.6133-4.7422-8.582-13.773-14.227-24.16-14.227-13.773 0-25.289 10.16-27.324 23.484-3.1602-1.3555-6.7734-2.0312-10.613-2.0312-15.355 0-27.773 12.418-27.773 27.773v0.45312l6.3242 110.42-12.645-13.547c-7.9023-12.418-24.387-16.711-37.258-9.2578-13.324 7.6758-17.84 24.613-10.16 37.934 0.22656 0.22656 0.45312 0.67578 0.67578 0.90234l37.258 49.902c1.8047 2.2578 4.2891 3.6133 7 3.6133 1.8047 0 3.6133-0.67578 5.1953-1.8047 3.8398-2.9336 4.7422-8.3555 1.8047-12.195l-37.031-49.453c-2.4844-4.7422-0.90234-10.84 4.0664-13.547 4.9688-2.7109 11.066-1.1289 14 3.8398 0.22656 0.67578 0.67578 1.1289 1.1289 1.582l29.582 32.066s0.22656 0 0.22656 0.22656l0.67578 0.67578c0.22656 0.22656 0.45312 0.22656 0.67578 0.45312 0.22656 0.22656 0.45312 0.22656 0.67578 0.45312 0.22656 0.22656 0.45312 0.22656 0.67578 0.45312 0.22656 0 0.45312 0.22656 0.90234 0.22656 0.22656 0 0.45313 0.22656 0.67578 0.22656h0.90234 0.90234 0.22656 0.45312 0.45312c0.22656 0 0.67578 0 0.90234-0.22656 0.22656 0 0.45312 0 0.67578-0.22656 0.22656 0 0.45312-0.22656 0.90234-0.22656 0.22656 0 0.45313-0.22656 0.67578-0.45313 0.22656-0.22656 0.45312-0.22656 0.67578-0.45312 0.22656-0.22656 0.45312-0.45313 0.67578-0.67578l0.45312-0.45312c0.22656-0.22656 0.45312-0.45312 0.67578-0.67578 0.22656-0.22656 0.22656-0.45312 0.45313-0.67578 0.22656-0.22656 0.22656-0.45312 0.45312-0.67578 0.22656-0.22656 0.22656-0.45313 0.45313-0.67578 0-0.22656 0.22656-0.45312 0.22656-0.67578 0-0.22656 0.22656-0.45312 0.22656-0.90234v-0.90234-0.90234-0.45312l-7.6758-134.36c0-5.6445 4.7422-9.9336 10.16-9.9336 5.6445 0 10.16 4.5156 10.16 10.16v91c0 4.7422 3.8398 8.8047 8.8047 8.8047 4.9688 0 8.8047-3.8398 8.8047-8.8047v-112.45c0-5.6445 4.5156-10.16 10.16-10.16s10.16 4.5156 10.16 10.16v112.22c0 4.7422 3.8398 8.8047 8.8047 8.8047 4.7422 0 8.8047-3.8398 8.8047-8.8047v-101.61c0-5.6445 4.5156-10.16 10.16-10.16 5.6445 0 10.16 4.5156 10.16 10.16v93.031c0 4.7422 3.8398 8.8047 8.8047 8.8047 4.7422 0 8.8047-3.8398 8.8047-8.8047v-58.031c0-5.6445 4.5156-10.16 10.16-10.16s10.16 4.5156 10.16 10.16v126c0 22.355-6.0977 44.484-17.613 63.676-0.90234 1.3555-1.3555 2.9336-1.3555 4.5156v37.031c0 4.7422 3.8398 8.8047 8.8047 8.8047 4.7422 0 8.8047-3.8398 8.8047-8.8047v-34.547c12.418-21.453 18.969-45.84 18.969-70.453v-126c0.47266-15.816-11.945-28.234-27.301-28.234z"/>
  <path d="m166.42 474.64c-0.67578-4.7422-5.1953-8.1289-9.9336-7.4531-4.7422 0.67578-8.1289 5.1953-7.4531 9.9336l8.582 58.711c0.67578 4.2891 4.2891 7.4531 8.582 7.4531h1.3555c4.7422-0.67578 8.1289-5.1953 7.4531-9.9336z"/>
  <use x="70" y="593.871094" xlink:href="#u"/>
  <use x="78.285156" y="593.871094" xlink:href="#c"/>
  <use x="83.855469" y="593.871094" xlink:href="#b"/>
  <use x="91.511719" y="593.871094" xlink:href="#j"/>
  <use x="99.128906" y="593.871094" xlink:href="#d"/>
  <use x="104.527344" y="593.871094" xlink:href="#b"/>
  <use x="112.183594" y="593.871094" xlink:href="#i"/>
  <use x="124.195312" y="593.871094" xlink:href="#h"/>
  <use x="132.277344" y="593.871094" xlink:href="#g"/>
  <use x="143.570312" y="593.871094" xlink:href="#e"/>
  <use x="150.261719" y="593.871094" xlink:href="#a"/>
  <use x="158.019531" y="593.871094" xlink:href="#t"/>
  <use x="161.886719" y="593.871094" xlink:href="#a"/>
  <use x="169.644531" y="593.871094" xlink:href="#c"/>
  <use x="175.210938" y="593.871094" xlink:href="#s"/>
  <use x="179.082031" y="593.871094" xlink:href="#f"/>
  <use x="187.164062" y="593.871094" xlink:href="#a"/>
  <use x="194.921875" y="593.871094" xlink:href="#f"/>
  <use x="70" y="605.160156" xlink:href="#r"/>
  <use x="74.910156" y="605.160156" xlink:href="#c"/>
  <use x="80.480469" y="605.160156" xlink:href="#a"/>
  <use x="88.238281" y="605.160156" xlink:href="#q"/>
  <use x="103.929688" y="605.160156" xlink:href="#d"/>
  <use x="109.328125" y="605.160156" xlink:href="#p"/>
  <use x="117.367188" y="605.160156" xlink:href="#b"/>
  <use x="128.953125" y="605.160156" xlink:href="#o"/>
  <use x="138.402344" y="605.160156" xlink:href="#a"/>
  <use x="146.160156" y="605.160156" xlink:href="#n"/>
  <use x="154.199219" y="605.160156" xlink:href="#m"/>
  <use x="166.167969" y="605.160156" xlink:href="#l"/>
  <use x="174.441406" y="605.160156" xlink:href="#c"/>
  <use x="180.007812" y="605.160156" xlink:href="#a"/>
  <use x="187.765625" y="605.160156" xlink:href="#k"/>
  <use x="191.636719" y="605.160156" xlink:href="#b"/>
  <use x="199.292969" y="605.160156" xlink:href="#e"/>
  <use x="205.984375" y="605.160156" xlink:href="#d"/>
 </g>
</svg>
