<?xml version="1.0" encoding="UTF-8"?>
<svg width="700pt" height="700pt" version="1.1" viewBox="0 0 700 700" xmlns="http://www.w3.org/2000/svg">
 <path fill="#ffffff" d="m575.86 210h54.145v-35h-47.461l-37.102-14.699 45.188-45.188c12.34-12.375 19.27-29.141 19.27-46.617 0-17.48-6.9297-34.246-19.27-46.621-12.559-11.992-29.254-18.688-46.621-18.688-17.363 0-34.062 6.6953-46.617 18.688l-66.324 66.324-268.98 35.875-71.926 202.65c-4.6172 13.605-3.9219 28.457 1.9453 41.57 5.8672 13.117 16.473 23.535 29.695 29.164l-13.859 13.844-24.832 118.09 118.14-24.848 22.75-22.664c9.0469 5.2305 19.297 8.0312 29.75 8.1211h169.42l140-52.5h66.832v-35h-73.168l-140 52.5h-163.08c-9.3789 0-18.043-5.0039-22.734-13.125-4.6875-8.1211-4.6875-18.129 0-26.25 4.6914-8.1211 13.355-13.125 22.734-13.125h138.5l87.938-87.922-46.043-42.977 84.332-84.352zm-53.727-163.38c5.8945-5.6289 13.727-8.7695 21.875-8.7695 8.1484 0 15.984 3.1406 21.875 8.7695 5.793 5.8047 9.0469 13.672 9.0469 21.875 0 8.1992-3.2539 16.066-9.0469 21.875l-24.133 24.133-43.75-43.75zm-398.88 291.48 64.75-182.18 202.25-26.984-63.488 63.559h-69.039l-44.609 26.336-46.637 132.29c-0.40625 1.082-0.90234 2.1328-1.4883 3.1328l-10.988 10.973c-2.875 1.4258-6.0312 2.2031-9.2383 2.2734-7.2031 0.003906-13.969-3.4297-18.223-9.2383-4.2539-5.8086-5.4805-13.301-3.3047-20.16zm168.51-110.6-68.883 68.879 19.004-53.898 25.395-14.98zm85.996 140h-39.52l71.137-71.137 20.441 19.059zm-89.008 0h-35c-16.246 0-31.824 6.4531-43.309 17.941-11.488 11.484-17.941 27.062-17.941 43.309 0.027344 9.7617 2.4297 19.371 7 28l-15.75 15.75-55.406 11.656 11.656-55.406 35-35c7.6211-4.6953 14.035-11.117 18.727-18.742l279.53-279.51 43.75 43.75z"/>
</svg>
